<svg xmlns="http://www.w3.org/2000/svg" width="63.688" height="60.38" viewBox="0 0 63.688 60.38">
  <metadata><?xpacket begin="﻿" id="W5M0MpCehiHzreSzNTczkc9d"?>
<x:xmpmeta xmlns:x="adobe:ns:meta/" x:xmptk="Adobe XMP Core 5.6-c142 79.160924, 2017/07/13-01:06:39        ">
   <rdf:RDF xmlns:rdf="http://www.w3.org/1999/02/22-rdf-syntax-ns#">
      <rdf:Description rdf:about=""/>
   </rdf:RDF>
</x:xmpmeta>
                                                                                                    
                                                                                                    
                                                                                                    
                                                                                                    
                                                                                                    
                                                                                                    
                                                                                                    
                                                                                                    
                                                                                                    
                                                                                                    
                                                                                                    
                                                                                                    
                                                                                                    
                                                                                                    
                                                                                                    
                                                                                                    
                                                                                                    
                                                                                                    
                                                                                                    
                                                                                                    
                           
<?xpacket end="w"?></metadata>
<defs>
    <style>
      .cls-1 {
        fill: #f37a20;
        fill-rule: evenodd;
      }
    </style>
  </defs>
  <path class="cls-1" d="M879.638,7132.87l-6.7-2.01v-2.71a10.886,10.886,0,0,0,4.386-7.94,3.134,3.134,0,0,0,1.133-5.39v-6.45a5.332,5.332,0,0,0-2.364-4.41,4.207,4.207,0,0,0-4.088-3.14h-8.831a8.667,8.667,0,0,0-8.66,8.66v5.34a3.134,3.134,0,0,0,1.133,5.39,10.886,10.886,0,0,0,4.386,7.94v2.71l-8.013,2.4a4.229,4.229,0,0,0-3.025,4.07v10.78a0.928,0.928,0,0,0,.933.93H850.1v11.21a0.933,0.933,0,1,0,1.865,0v-11.21h3.654v11.21a0.933,0.933,0,1,0,1.866,0v-17.66a0.959,0.959,0,0,0-.1-0.42l-2.208-4.41a0.932,0.932,0,1,0-1.668.83l2.109,4.22v4.37h-4.757v-9.85a2.361,2.361,0,0,1,1.7-2.28l3.35-1a10.87,10.87,0,0,0,21.157,0l2.034,0.6a0.834,0.834,0,0,0,.268.04A0.929,0.929,0,0,0,879.638,7132.87Zm-22.149-13.46a0.934,0.934,0,0,0-.933-0.93,1.276,1.276,0,0,1-1.275-1.28,1.251,1.251,0,0,1,.64-1.09c0.021-.01.04-0.03,0.059-0.04a1.278,1.278,0,0,1,.576-0.14h1.412a2.036,2.036,0,0,0,1.932-1.39l0.643-1.93c2.193-.05,9.1-0.36,12.988-2.3a0.934,0.934,0,0,0-.835-1.67c-4.165,2.08-12.743,2.11-12.829,2.11a0.937,0.937,0,0,0-.885.64l-0.852,2.56a0.164,0.164,0,0,1-.162.11h-1.412c-0.057,0-.114.01-0.171,0.01v-4.59a6.8,6.8,0,0,1,6.794-6.8h8.831a2.368,2.368,0,0,1,2.338,2.01,0.922,0.922,0,0,0,.463.66,3.484,3.484,0,0,1,1.785,3.02v6.93a0.946,0.946,0,0,0,.464.81,1.253,1.253,0,0,1,.64,1.09,1.276,1.276,0,0,1-1.275,1.28,0.934,0.934,0,0,0-.933.93A9,9,0,0,1,857.489,7119.41Zm13.588,9.85v2.29a4.587,4.587,0,0,1-9.173.02v-2.31A10.822,10.822,0,0,0,871.077,7129.26Zm1.283,9.12a9,9,0,0,1-14.657-4.87l2.452-.74a6.449,6.449,0,0,0,12.67,0l2.452,0.74A9.014,9.014,0,0,1,872.36,7138.38ZM869.286,7122a0.936,0.936,0,0,0-1.312.13,1.828,1.828,0,0,1-2.967,0,0.934,0.934,0,0,0-1.448,1.18,3.689,3.689,0,0,0,5.864,0A0.93,0.93,0,0,0,869.286,7122Zm-7.211-5.73a0.934,0.934,0,0,0-.933.93v1.11a0.933,0.933,0,0,0,1.866,0v-1.11A0.934,0.934,0,0,0,862.075,7116.27Zm8.831,0a0.934,0.934,0,0,0-.933.93v1.11a0.933,0.933,0,0,0,1.866,0v-1.11A0.934,0.934,0,0,0,870.906,7116.27Zm28.184,11.25a0.927,0.927,0,0,0-1.312.13,1.828,1.828,0,0,1-2.967,0,0.934,0.934,0,0,0-1.449,1.18,3.69,3.69,0,0,0,5.865,0A0.93,0.93,0,0,0,899.09,7127.52Zm-7.211-5.73a0.934,0.934,0,0,0-.933.93v1.11a0.933,0.933,0,0,0,1.866,0v-1.11A0.934,0.934,0,0,0,891.879,7121.79Zm8.831,0a0.934,0.934,0,0,0-.933.93v1.11a0.933,0.933,0,0,0,1.866,0v-1.11A0.934,0.934,0,0,0,900.71,7121.79Zm9.3,19.1-7.569-3.02a1.257,1.257,0,0,1-.184-0.1,46.964,46.964,0,0,0,7.634-2.04,0.933,0.933,0,0,0,.572-0.98,157.271,157.271,0,0,1-1.1-16.44,13.076,13.076,0,1,0-26.151,0,157.84,157.84,0,0,1-1.1,16.44,0.932,0.932,0,0,0,.572.98,46.967,46.967,0,0,0,7.633,2.04,1.246,1.246,0,0,1-.183.1l-7.569,3.02a4.23,4.23,0,0,0-2.668,3.94v2.35h-2.55v-4.37l2.109-4.22a0.932,0.932,0,1,0-1.669-.83l-2.207,4.42a0.886,0.886,0,0,0-.1.41v17.66a0.933,0.933,0,1,0,1.866,0v-11.21h2.55v1.28a0.938,0.938,0,0,0,.273.66,0.95,0.95,0,0,0,.659.27h0.172v9a0.933,0.933,0,1,0,1.865,0v-9h2.55v9a0.933,0.933,0,1,0,1.866,0v-12.14a0.933,0.933,0,0,0-1.866,0v1.28h-3.654v-4.56a2.361,2.361,0,0,1,1.5-2.2l3.721-1.49a9.766,9.766,0,0,0,18.609,0l3.721,1.49a2.361,2.361,0,0,1,1.5,2.2v4.56h-3.653v-1.28a0.933,0.933,0,0,0-1.866,0v12.14a0.933,0.933,0,1,0,1.866,0v-9h2.55v9a0.933,0.933,0,1,0,1.865,0v-9h0.171a0.934,0.934,0,0,0,.933-0.93v-5.49A4.23,4.23,0,0,0,910.013,7140.89Zm-24.928-22.58a11.21,11.21,0,1,1,22.419,0,156.12,156.12,0,0,0,1.024,15.93,56.868,56.868,0,0,1-6.885,1.76v-1.61a11.145,11.145,0,0,0,1.478-1,10.872,10.872,0,0,0,4.041-8.46c0-5.43-3.936-6.21-7.742-6.97-2.434-.48-4.951-0.98-6.958-2.59a0.952,0.952,0,0,0-.782-0.18,0.936,0.936,0,0,0-.635.49,10.886,10.886,0,0,1-1.412,2.04,4.753,4.753,0,0,1-3.273,1.86,3.085,3.085,0,0,0-1.289.28C885.08,7119.34,885.085,7118.82,885.085,7118.31Zm11.209,15.62a8.931,8.931,0,0,1-5.654-1.99,8.994,8.994,0,0,1-3.347-7.01,0.934,0.934,0,0,0-.933-0.93,1.275,1.275,0,1,1,0-2.55c2.828,0,4.88-2.56,5.807-4a19.225,19.225,0,0,0,6.89,2.34c4.1,0.81,6.239,1.41,6.239,5.14A8.987,8.987,0,0,1,896.294,7133.93Zm-12.233.31c0.165-1.45.529-4.85,0.775-8.77a3.3,3.3,0,0,0,.62.26,10.586,10.586,0,0,0,.24,1.61,10.943,10.943,0,0,0,3.771,6.05,11.155,11.155,0,0,0,1.479,1V7136A56.813,56.813,0,0,1,884.061,7134.24Zm12.233,11.83a7.891,7.891,0,0,1-7.567-5.63l2.111-.84a3.133,3.133,0,0,0,1.974-2.92v-1.46a10.745,10.745,0,0,0,6.965,0v1.46a3.133,3.133,0,0,0,1.974,2.92l2.111,0.84A7.892,7.892,0,0,1,896.294,7146.07Z" transform="translate(-849 -7100.81)"/>
</svg>
