<svg xmlns="http://www.w3.org/2000/svg" width="35" height="35" viewBox="0 0 35 35">
  
<defs>
    <style>
      .cls-1 {
        fill: #ff6b00;
        fill-rule: evenodd;
      }
    </style>
  </defs>
  <path class="cls-1" d="M1339,44.5A17.5,17.5,0,1,0,1356.5,62,17.52,17.52,0,0,0,1339,44.5Zm0,33.108A15.608,15.608,0,1,1,1354.61,62,15.625,15.625,0,0,1,1339,77.607Zm9.51-19.076h-6.04V52.487a0.951,0.951,0,0,0-.95-0.946h-5.04a0.951,0.951,0,0,0-.95.946v6.043h-6.04a0.951,0.951,0,0,0-.95.946v5.045a0.951,0.951,0,0,0,.95.946h6.04v6.043a0.951,0.951,0,0,0,.95.947h5.04a0.951,0.951,0,0,0,.95-0.947V65.467h6.04a0.951,0.951,0,0,0,.95-0.946V59.477A0.951,0.951,0,0,0,1348.51,58.531Zm-0.94,5.045h-6.05a0.943,0.943,0,0,0-.94.946v6.043h-3.16V64.522a0.943,0.943,0,0,0-.94-0.946h-6.05V60.423h6.05a0.943,0.943,0,0,0,.94-0.947V53.433h3.16v6.044a0.943,0.943,0,0,0,.94.947h6.05v3.153h0Z" transform="translate(-1321.5 -44.5)"/>
</svg>
