<svg xmlns="http://www.w3.org/2000/svg" width="33" height="33" viewBox="0 0 33 33">
  
<defs>
    <style>
      .cls-1 {
        fill: #90b758;
        fill-rule: evenodd;
      }
    </style>
  </defs>
  <path class="cls-1" d="M1041.44,55.54a53.571,53.571,0,0,0,1.06-9.574,0.962,0.962,0,0,0-.97-0.966,53.762,53.762,0,0,0-9.57,1.061,46.847,46.847,0,0,0-5.3,1.373l-0.03.011c-1.07.351-2.1,0.734-3.07,1.151a29.392,29.392,0,0,0-3.33,1.674c-0.03.016-.06,0.035-0.09,0.055a21.486,21.486,0,0,0-4.31,3.3,12.761,12.761,0,0,0-.66,17.339l-5.39,5.387a0.967,0.967,0,0,0,.69,1.65,0.97,0.97,0,0,0,.68-0.284l5.39-5.385a12.766,12.766,0,0,0,17.34-.658,21.908,21.908,0,0,0,3.29-4.311l0.06-.091a30.651,30.651,0,0,0,1.67-3.33c0.42-.973.8-2,1.16-3.075V60.839A48.071,48.071,0,0,0,1041.44,55.54Zm-9.14-7.575a54.851,54.851,0,0,1,8.24-1,55.866,55.866,0,0,1-1,8.237c-0.28,1.349-.64,2.849-1.11,4.4h-9.16l5.62-5.624a0.964,0.964,0,1,0-1.36-1.368l-5.63,5.624V49.073A45.239,45.239,0,0,1,1032.3,47.965Zm3.51,17.887h-12.8l4.33-4.323h10.43A29.573,29.573,0,0,1,1035.81,65.852Zm-9.84-16.127V60.162l-4.32,4.322V51.69A30.1,30.1,0,0,1,1025.97,49.725Zm-11.95,12.923a10.779,10.779,0,0,1,3.17-7.658,18.627,18.627,0,0,1,2.52-2.094v13.52l-3.17,3.173A10.748,10.748,0,0,1,1014.02,62.648Zm18.49,7.657a10.829,10.829,0,0,1-14.6.653l3.17-3.173h13.52A18.763,18.763,0,0,1,1032.51,70.305Z" transform="translate(-1009.5 -45)"/>
</svg>
