<svg xmlns="http://www.w3.org/2000/svg" width="67.66" height="60.63" viewBox="0 0 67.66 60.63">
  <metadata><?xpacket begin="﻿" id="W5M0MpCehiHzreSzNTczkc9d"?>
<x:xmpmeta xmlns:x="adobe:ns:meta/" x:xmptk="Adobe XMP Core 5.6-c142 79.160924, 2017/07/13-01:06:39        ">
   <rdf:RDF xmlns:rdf="http://www.w3.org/1999/02/22-rdf-syntax-ns#">
      <rdf:Description rdf:about=""/>
   </rdf:RDF>
</x:xmpmeta>
                                                                                                    
                                                                                                    
                                                                                                    
                                                                                                    
                                                                                                    
                                                                                                    
                                                                                                    
                                                                                                    
                                                                                                    
                                                                                                    
                                                                                                    
                                                                                                    
                                                                                                    
                                                                                                    
                                                                                                    
                                                                                                    
                                                                                                    
                                                                                                    
                                                                                                    
                                                                                                    
                           
<?xpacket end="w"?></metadata>
<defs>
    <style>
      .cls-1 {
        fill: #f3771b;
        fill-rule: evenodd;
      }
    </style>
  </defs>
  <path class="cls-1" d="M1683.7,7131.16l-6.49-1.97-0.71-1.41a0.988,0.988,0,0,0-1.17-.51v-0.24a11.576,11.576,0,0,0,4.77-8.51,3.294,3.294,0,0,0,2.02-4.9,3.915,3.915,0,0,0,.26-6.8,3.48,3.48,0,0,0,.09-0.79,3.335,3.335,0,0,0-3.33-3.33,3.393,3.393,0,0,0-1.25.24,10.3,10.3,0,0,0-6.96-2.68h-4.69a10.3,10.3,0,0,0-6.96,2.68,3.474,3.474,0,0,0-1.25-.24,3.344,3.344,0,0,0-3.34,3.33,3.417,3.417,0,0,0,.09.79,3.906,3.906,0,0,0,.26,6.79,3.3,3.3,0,0,0,2.03,4.91,11.546,11.546,0,0,0,4.76,8.5v0.25a0.994,0.994,0,0,0-1.17.51l-0.71,1.41-6.74,2.02a4.482,4.482,0,0,0-3.21,4.32v24.35a0.99,0.99,0,0,0,1.98,0v-24.35c0-.07.01-0.15,0.01-0.22l3.96,3.96a3.685,3.685,0,0,1,1.09,2.62v17.99a0.99,0.99,0,0,0,1.98,0v-17.99a5.618,5.618,0,0,0-1.67-4.02l-4.36-4.36a2.453,2.453,0,0,1,.79-0.4l4.47-1.34a26.44,26.44,0,0,0,9.78,12.29,1.025,1.025,0,0,0,1.1,0,26.319,26.319,0,0,0,9.8-12.28l4.19,1.27a1.04,1.04,0,0,0,.29.05A0.992,0.992,0,0,0,1683.7,7131.16Zm-8.08-.72-3.35,4.19a0.16,0.16,0,0,1-.14.07,0.2,0.2,0,0,1-.15-0.08l-1.89-2.53,5.08-2.54Zm-7.04.19-4.77-2.39v-0.06a11.537,11.537,0,0,0,9.53,0v0.07Zm10.56-25.95a1.357,1.357,0,0,1,1.35,1.35,1.4,1.4,0,0,1-.22.75,0.981,0.981,0,0,0,.56,1.5,1.936,1.936,0,1,1-2.46,1.86,1.924,1.924,0,0,1,.52-1.31,0.992,0.992,0,0,0-.32-1.57A1.351,1.351,0,0,1,1679.14,7104.68Zm-24.23,5.46a1.944,1.944,0,0,1,1.43-1.86,0.981,0.981,0,0,0,.66-0.61,1,1,0,0,0-.1-0.89,1.327,1.327,0,0,1-.23-0.75,1.355,1.355,0,1,1,1.92,1.23,1.012,1.012,0,0,0-.56.71,0.973,0.973,0,0,0,.25.86,1.972,1.972,0,0,1,.52,1.31A1.945,1.945,0,0,1,1654.91,7110.14Zm4.11,7.53a1,1,0,0,0-.99-1,1.433,1.433,0,0,1-1.46-1.11,1.346,1.346,0,0,1,1.03-1.56c0.04-.01.08-0.02,0.11-0.03a3.943,3.943,0,0,0,3.07-3.83,4.009,4.009,0,0,0-.41-1.74,3.32,3.32,0,0,0,.45-4.18,8.376,8.376,0,0,1,5.42-1.98h4.69a8.31,8.31,0,0,1,5.41,1.98,3.306,3.306,0,0,0,.46,4.18,3.872,3.872,0,0,0-.41,1.74,3.926,3.926,0,0,0,3.17,3.85l0.09,0.03a1.363,1.363,0,0,1,.95,1.54,1.449,1.449,0,0,1-1.46,1.11,1,1,0,0,0-1,1A9.56,9.56,0,0,1,1659.02,7117.67Zm2.65,12.51,0.32-.63,5.09,2.54-1.9,2.53a0.187,0.187,0,0,1-.14.08,0.176,0.176,0,0,1-.15-0.07l-3.32-4.16A0.771,0.771,0,0,0,1661.67,7130.18Zm6.91,11.85a24.819,24.819,0,0,1-7.84-9.42l2.6,3.26a2.183,2.183,0,0,0,1.69.81h0.04a2.136,2.136,0,0,0,1.69-.87l0.83-1.1v4.06a0.99,0.99,0,1,0,1.98,0v-4.06l0.83,1.1a2.141,2.141,0,0,0,1.7.87h0.03a2.183,2.183,0,0,0,1.69-.81l2.61-3.27A24.738,24.738,0,0,1,1668.58,7142.03Zm2.97-21.62a0.987,0.987,0,0,0-1.39.15,1.936,1.936,0,0,1-3.15,0,0.992,0.992,0,1,0-1.54,1.25,3.92,3.92,0,0,0,6.23,0A1,1,0,0,0,1671.55,7120.41Zm-7.66-6.08a0.986,0.986,0,0,0-.99.99v1.17a0.99,0.99,0,0,0,1.98,0v-1.17A0.986,0.986,0,0,0,1663.89,7114.33Zm9.38,0a0.992,0.992,0,0,0-.99.99v1.17a0.99,0.99,0,0,0,1.98,0v-1.17A0.986,0.986,0,0,0,1673.27,7114.33Zm10.08,21.4a0.984,0.984,0,0,0-1.4,0l-2.14,2.14a5.677,5.677,0,0,0-1.67,4.02v17.99a1,1,0,0,0,1.99,0v-17.99a3.675,3.675,0,0,1,1.08-2.62l2.14-2.14A0.984,0.984,0,0,0,1683.35,7135.73Zm19.86-7.11a0.988,0.988,0,0,0-1.39.15,1.95,1.95,0,0,1-3.15,0,0.988,0.988,0,0,0-1.39-.15,1,1,0,0,0-.15,1.4,3.92,3.92,0,0,0,6.23,0A1,1,0,0,0,1703.21,7128.62Zm-13.52,17.37a0.992,0.992,0,0,0-.99.99v12.9a0.99,0.99,0,1,0,1.98,0v-12.9A0.992,0.992,0,0,0,1689.69,7145.99Zm21.11,0a0.992,0.992,0,0,0-.99.99v12.9a0.99,0.99,0,0,0,1.98,0v-12.9A0.992,0.992,0,0,0,1710.8,7145.99Zm3.54-6.77a4.485,4.485,0,0,0-1.38-6.73v-0.17a3.919,3.919,0,0,0-1.64-3.19q0.105-.345.18-0.69a11.1,11.1,0,0,0,.25-1.82,13.9,13.9,0,1,0-23.01,0,11.1,11.1,0,0,0,.25,1.82q0.075,0.345.18,0.69a3.919,3.919,0,0,0-1.64,3.19v0.17a4.485,4.485,0,0,0-1.38,6.73,6.828,6.828,0,0,0-3.31,5.87v14.79a0.99,0.99,0,1,0,1.98,0v-14.79a4.842,4.842,0,0,1,3.06-4.52l0.19-.08a15.247,15.247,0,0,0,12.17,6.31,15.071,15.071,0,0,0,12.18-6.31l0.19,0.08a4.842,4.842,0,0,1,3.06,4.52v14.79a0.99,0.99,0,0,0,1.98,0v-14.79A6.828,6.828,0,0,0,1714.34,7139.22Zm-26-20.38a11.905,11.905,0,1,1,22.81,4.79c-1.43-3.07-4.6-3.93-7.69-4.77-2.49-.67-5.08-1.37-7.29-3.14a0.976,0.976,0,0,0-1.5.33,7.7,7.7,0,0,1-3.08,3.07,1,1,0,0,0,.89,1.78,9.438,9.438,0,0,0,3.35-2.98,23.216,23.216,0,0,0,7.11,2.86c0.75,0.2,1.43.39,2.06,0.59h-0.06a3.352,3.352,0,0,0-2.86,1.6,4.022,4.022,0,0,0-1.84-.43,3.981,3.981,0,0,0-1.83.43,3.343,3.343,0,1,0,.46,2.1,1.994,1.994,0,0,1,2.75,0,3.335,3.335,0,1,0,5.59-2.81,4.819,4.819,0,0,1,2.61,3.75,0.761,0.761,0,0,0-.03.21,10.3,10.3,0,0,1-.22,1.78,9.6,9.6,0,0,1-3.32,5.32,9.565,9.565,0,0,1-12.01,0,9.6,9.6,0,0,1-3.32-5.32,10.181,10.181,0,0,1-.22-1.78,1.007,1.007,0,0,0-.29-0.67A11.791,11.791,0,0,1,1688.34,7118.84Zm17.95,5.86a1.355,1.355,0,1,1-1.35-1.35A1.359,1.359,0,0,1,1706.29,7124.7Zm-9.38,0a1.355,1.355,0,1,1-1.36-1.35A1.361,1.361,0,0,1,1696.91,7124.7Zm9.03,13.2a8.387,8.387,0,0,1-11.39,0,3.359,3.359,0,0,0,1.48-1.28,11.5,11.5,0,0,0,8.43,0A3.3,3.3,0,0,0,1705.94,7137.9Zm-17.88.46a2.507,2.507,0,0,1,.87-4.32,1,1,0,0,0,.66-1.21,1.721,1.721,0,0,1-.08-0.51,1.948,1.948,0,0,1,.44-1.23,11.406,11.406,0,0,0,4.28,4.64,1.3,1.3,0,0,1-.52.37Zm12.18,6.46a13.03,13.03,0,0,1-10.26-5.1l2.57-1.02a10.387,10.387,0,0,0,15.39,0l2.57,1.03A13.069,13.069,0,0,1,1700.24,7144.82Zm12.19-6.46-5.65-2.26a1.3,1.3,0,0,1-.52-0.37,11.406,11.406,0,0,0,4.28-4.64,1.948,1.948,0,0,1,.44,1.23,1.721,1.721,0,0,1-.08.51,1,1,0,0,0,.66,1.21,2.5,2.5,0,0,1,1.77,2.39A2.548,2.548,0,0,1,1712.43,7138.36Z" transform="translate(-1650 -7100.25)"/>
</svg>
