<svg xmlns="http://www.w3.org/2000/svg" width="33" height="36" viewBox="0 0 33.625 36.875">
<defs>
    <style>
      .cls-1 {
        fill: #fca704;
        fill-rule: evenodd;
      }
    </style>
  </defs>
  <path class="cls-1" d="M713.033,52.644a1.078,1.078,0,0,0-1.176.234L709.7,55.037a1.079,1.079,0,1,0,1.527,1.526l0.316-.316v6.1a1.079,1.079,0,1,0,2.158,0V53.642A1.08,1.08,0,0,0,713.033,52.644ZM729.339,75.55l-4.764-10.216a14.031,14.031,0,1,0-23.911,0L695.9,75.55a1.079,1.079,0,0,0,1.348,1.47l4.723-1.719,1.719,4.724a1.079,1.079,0,0,0,1.992.086l3.908-8.38a14.008,14.008,0,0,0,6.057,0l3.908,8.38a1.08,1.08,0,0,0,1.993-.086l1.719-4.724,4.723,1.719A1.079,1.079,0,0,0,729.339,75.55Zm-24.511,1.288-1.2-3.289a1.08,1.08,0,0,0-1.383-.645l-3.289,1.2,3.166-6.79a14.115,14.115,0,0,0,5.382,3.784ZM712.62,69.9a11.945,11.945,0,1,1,11.872-11.945A11.922,11.922,0,0,1,712.62,69.9Zm10.372,3a1.079,1.079,0,0,0-1.383.645l-1.2,3.289-2.679-5.744a14.108,14.108,0,0,0,5.382-3.784l3.166,6.79ZM712.62,48.245a9.75,9.75,0,1,0,9.714,9.714A9.724,9.724,0,0,0,712.62,48.245Zm0,17.341a7.591,7.591,0,1,1,7.555-7.627A7.6,7.6,0,0,1,712.62,65.585Z" transform="translate(-695.813 -43.844)"/>
</svg>
