<svg xmlns="http://www.w3.org/2000/svg" width="22.781" height="21.75" viewBox="0 0 22.781 21.75">
  
<defs>
    <style>
      .cls-1 {
        fill: #fff;
        fill-rule: evenodd;
      }
    </style>
  </defs>
  <path class="cls-1" d="M725.257,627.8a0.713,0.713,0,0,0-.768-0.63l-6.874-1-3.081-6.231a0.682,0.682,0,0,0-1.342,0l-3.082,6.231-6.875,1a0.713,0.713,0,0,0-.767.63,1.044,1.044,0,0,0,.343.657L707.8,633.3l-1.178,6.848a2.237,2.237,0,0,0-.027.274,0.815,0.815,0,0,0,.143.486,0.5,0.5,0,0,0,.432.2,1.153,1.153,0,0,0,.547-0.164l6.149-3.232,6.149,3.232a1.106,1.106,0,0,0,.548.164,0.557,0.557,0,0,0,.562-0.684,2.082,2.082,0,0,0-.014-0.274L719.93,633.3l4.971-4.848A0.994,0.994,0,0,0,725.257,627.8Zm-7.217,4.889,0.985,5.766-5.163-2.726-5.176,2.726,1-5.766-4.19-4.068,5.779-.848,2.588-5.232,2.589,5.232,5.779,0.848Z" transform="translate(-702.469 -619.375)"/>
</svg>
